<svg data-v-0dd9719b="" version="1.0" xmlns="http://www.w3.org/2000/svg" xmlns:xlink="http://www.w3.org/1999/xlink"
     width="100%" height="100%" viewBox="0 0 340.000000 250.000000" preserveAspectRatio="xMidYMid meet"
     color-interpolation-filters="sRGB" style="margin: auto;">
    <rect data-v-0dd9719b="" x="0" y="0" width="100%" height="100%" fill="rgba(0,0,0,0)" fill-opacity="1"
          class="background"></rect>
    <rect data-v-0dd9719b="" x="0" y="0" width="100%" height="100%" fill="url(#watermark)" fill-opacity="1"
          class="watermarklayer"></rect>
    <g data-v-0dd9719b="" fill="#0a0619" class="basesvg" transform="translate(74.51000213623047,103.69999885559082)">
        <g data-gra="path-name" fill-rule="" class="tp-name">
            <g transform="scale(1)">
                <g>
                    <path d="M30.84-16.38C30.84-10.38 26.88-7.32 21.12-7.32 15.18-7.32 11.82-10.38 11.82-16.38L11.82-42 3.6-42 3.6-15.18C3.6-4.44 11.76 0.6 21.18 0.6 30.9 0.6 38.82-4.44 38.82-15.18L38.82-42 30.84-42ZM74.88 0L82.8 0 82.8-42 75.06-42 75.06-13.08 74.76-13.08 54.48-42 46.14-42ZM46.5 0L54.36 0 54.36-20.58 46.5-31.8ZM99.06-35.52L99.06-42 90.9-42 90.9-35.52ZM90.9 0L99 0 99-30 90.9-30ZM128.82-42L118.56-42 103.5 0 112.26 0 114.9-7.8 133.14-7.8 135.96 0 145.32 0ZM117-14.1L123.42-33.3 124.02-33.3 130.92-14.1ZM166.26-14.22C177.06-14.22 181.5-20.82 181.5-28.5 181.5-36.06 177.66-42 166.26-42L149.7-42 149.7 0 157.8 0 157.8-14.22ZM164.88-34.92C170.64-34.92 172.98-32.64 172.98-28.26 172.98-23.88 170.16-21.3 164.94-21.3L157.8-21.3 157.8-34.92ZM186.48 0L194.58 0 194.58-42 186.48-42Z"
                          transform="translate(-3.5999999046325684, 42)"></path>
                </g> <!----> <!----> <!----> <!----> <!----> <!----> <!---->
            </g>
        </g> <!---->
    </g>
    <defs v-gra="od"></defs>
</svg>